<mxfile host="app.diagrams.net" modified="2023-07-11T06:22:24.724Z" agent="Mozilla/5.0 (Windows NT 10.0; Win64; x64) AppleWebKit/537.36 (KHTML, like Gecko) Chrome/112.0.0.0 Safari/537.36" version="21.3.6" etag="MrHFO0Ygpq3TGqdT_eIt" type="github">
  <diagram name="Страница 1" id="DplPvfQ9VWn-E5NAMekv">
    <mxGraphModel>
      <root>
        <mxCell id="0" />
        <mxCell id="1" parent="0" />
      </root>
    </mxGraphModel>
  </diagram>
</mxfile>
